<svg viewBox="0 0 64 64" fill="none" xmlns="http://www.w3.org/2000/svg" width="512" height="512">
  <!-- Lemonade glass body (top part) -->
  <path d="M50 14c-2-2-5-3-8-2-1-3-4-5-7-5-2 0-4 1-5 2-2-4-6-6-10-5-5 1-8 5-8 10v1c-3 2-5 5-5 9v20c0 6 5 11 11 11h26c6 0 11-5 11-11V24c0-4-2-8-5-10z" fill="#FFD700"/>
  <!-- Lemonade liquid -->
  <path d="M16 24h32v20c0 4-3 7-7 7H23c-4 0-7-3-7-7V24z" fill="#FFF4CC"/>
  <!-- Glass rim -->
  <rect x="14" y="22" width="36" height="6" rx="2" fill="#FFD700"/>
  <!-- Bubbles -->
  <circle cx="24" cy="35" r="2" fill="#FFD700" opacity="0.6"/>
  <circle cx="32" cy="38" r="2" fill="#FFD700" opacity="0.6"/>
  <circle cx="40" cy="34" r="2" fill="#FFD700" opacity="0.6"/>
  <circle cx="28" cy="42" r="1.5" fill="#FFD700" opacity="0.4"/>
  <circle cx="36" cy="43" r="1.5" fill="#FFD700" opacity="0.4"/>
  <!-- Lemon leaf/stem -->
  <path d="M46 10c2 0 3 1 4 2l2 2" stroke="#90EE90" stroke-width="2" stroke-linecap="round" fill="none"/>
  <ellipse cx="48" cy="16" rx="4" ry="6" fill="#90EE90" opacity="0.7"/>
</svg>
